<svg xmlns="http://www.w3.org/2000/svg" viewBox="0 0 800 500"><defs><linearGradient id="s" x2="0" y2="1"><stop stop-color="#23404f"/><stop offset="1" stop-color="#081015"/></linearGradient><filter id="n"><feTurbulence baseFrequency=".5" numOctaves="2" seed="16"/><feColorMatrix values="0 0 0 0 .35 0 0 0 0 .42 0 0 0 0 .4 0 0 0 .17 0"/></filter></defs><rect width="800" height="500" fill="url(#s)"/><path d="M0 326c94-23 163 18 252-8s161 18 257-14 185 20 291-17v213H0z" fill="#263228"/><g fill="#11191b"><path d="M65 209h158v136H65zM559 180h169v154H559z"/><path d="M93 156h105l45 53H48zM591 130h109l55 50H540z"/></g><path d="M0 356h800" stroke="#b8c5a3" stroke-opacity=".52" stroke-width="14"/><path d="M270 281l40 88 39-88 36 88 40-88 36 88 42-88" fill="none" stroke="#91a984" stroke-width="13"/><rect width="800" height="500" filter="url(#n)"/></svg>
